<svg xmlns="http://www.w3.org/2000/svg" version="1.1" height="1024" width="1024">
   <g transform="scale(1.024)" fill="#FFFFFF">
      <g fill="#505050">
         <!--<rect width="1000" height="1000" fill="#505050"/>-->
         <circle xmlns="http://www.w3.org/2000/svg" cx="500" cy="500" r="500"/>
         <circle xmlns="http://www.w3.org/2000/svg" cx="500" cy="500" r="480" fill="#FFFFFF"/>
         <circle xmlns="http://www.w3.org/2000/svg" cx="500" cy="500" r="460"/>
      </g>
      <g transform="translate(280.0,70) scale(4)">
         <circle xmlns="http://www.w3.org/2000/svg" cx="79.59" cy="17.09" r="6.71"/>
         <circle xmlns="http://www.w3.org/2000/svg" cx="62.29" cy="12.14" r="2.71"/>
         <circle xmlns="http://www.w3.org/2000/svg" cx="42.1" cy="47.82" r="3.76"/>
         <circle xmlns="http://www.w3.org/2000/svg" cx="51.1" cy="47.95" r="1.88"/>
         <path xmlns="http://www.w3.org/2000/svg"
               d="M80.29,36.39,70.06,78.26c1.41,0.43,2.78.83,4.1,1.16,8.17,2,12.7,1.42,13.45,0,0.42-.78,0-2.87-2.63-6.2a58.1,58.1,0,0,0-8.83-8.61A27.43,27.43,0,0,1,70.06,78.26ZM26.12,61.08a22.9,22.9,0,0,0,3.67,12.06c5.49,2.8,8.67,3.42,12.21,3.42a23.27,23.27,0,0,0,8.11-1.44c-2.62-1.25-5.19-2.6-7.84-4A164.85,164.85,0,0,1,26.12,61.08Zm29,11.41a23,23,0,0,0,9.86-18.86,20.9,20.9,0,0,0-3.87-12.49,22.94,22.94,0,0,0-34.42,15A157.58,157.58,0,0,0,44.37,67.2c3.6,1.95,7.19,3.7,10.7,5.29M31.47,39.9a64.62,64.62,0,0,0-13.95-3.4c-4.46-.45-6.56.34-7,1.15C9.77,39,11.75,43.16,17.89,48.91c1.5,1.41,3.13,2.84,4.94,4.28a27.47,27.47,0,0,1,8.58-13.31m4.46-3.06a26.83,26.83,0,0,1,13.22-3.45A27.34,27.34,0,0,1,76.37,59.15,69.11,69.11,0,0,1,88.46,70.51c3.54,4.52,4.56,8.23,3,11-1.3,2.4-4.13,3.6-8.45,3.6a42.91,42.91,0,0,1-9.94-1.44c-2.09-.51-4.28-1.18-6.57-1.94A27.33,27.33,0,0,1,26.37,76l0,0a27.2,27.2,0,0,1-4.62-15.19c0-.87.07-1.77,0.15-2.62-2.6-2-4.94-4-7-6C7.29,45,4.52,39.45,6.64,35.54,8.2,32.66,12,31.51,18,32.1a75.14,75.14,0,0,1,17.9,4.71m-19,37"/>
      </g>
      <g transform="translate(0,300) scale(1)">
         <path transform="translate(120, 50) scale(7)" d="M12.4 32.24 c-0.8 -1.68 -2.12 -2.72 -4.04 -2.72 c-2 0 -3.36 1.2 -3.36 2.8 c0 1.44 0.76 2.48 2.84 3.24 l2.08 0.72 c3.48 1.24 6.04 2.52 6.04 6.16 c0 3.96 -3.84 6 -7.4 6 c-3.6 0 -6.8 -2.08 -7.56 -5.56 l2.64 -0.8 c0.64 2.28 2.52 3.68 4.92 3.68 c2.08 0 4.16 -1.2 4.16 -3.28 c0 -1.8 -1.24 -2.76 -3.4 -3.52 l-2.32 -0.84 c-3.64 -1.28 -5.2 -3.32 -5.2 -5.8 c0 -3.24 2.88 -5.48 6.48 -5.48 c3.36 0 5.72 1.84 6.84 4.6 z M28.880000000000003 29.96 l-4.4 0 l0 13.4 c0 1.24 0.48 2 1.68 2 c1.04 0 1.8 -0.24 2.68 -0.64 l0 2.8 c-0.88 0.44 -1.92 0.72 -3.56 0.72 c-2.12 0 -4.04 -0.96 -4.04 -4.6 l0 -13.68 l-2.88 0 l0 -2.76 l2.88 0 l0 -4.88 l3.24 0 l0 4.88 l4.4 0 l0 2.76 z M42.32 26.84 c4.72 0 11.04 3.6 10.2 11.96 l-17.56 0 c0.52 4.56 4.08 6.8 7.84 6.8 c2.88 0 4.72 -0.8 6.28 -2.32 l1.92 1.76 c-1.88 2.24 -4.6 3.36 -8.24 3.36 c-5.36 0 -11.08 -3.6 -11.08 -10.76 c0 -7.2 5.92 -10.8 10.64 -10.8 z M42.32 29.68 c-3.08 0 -6.76 2.2 -7.36 6.68 l14.68 0 c-0.4 -4.48 -4.2 -6.68 -7.32 -6.68 z M59.56 19.72 l0 28.28 l-3.28 0 l0 -28.28 l3.28 0 z M67.4 19.72 l0 28.28 l-3.28 0 l0 -28.28 l3.28 0 z M81.52000000000001 26.84 c3.68 0 6.52 2.04 7.48 4.28 l0 -3.92 l3.28 0 l0 20.8 l-3.28 0 l0 -4 c-0.96 2.4 -3.8 4.4 -7.48 4.4 c-4.72 0 -10.44 -3.56 -10.44 -10.8 c0 -7.16 5.72 -10.76 10.44 -10.76 z M81.88000000000001 29.76 c-3.52 0 -7.6 2.6 -7.6 7.84 c0 5.28 4.08 7.88 7.6 7.88 c3.56 0 7.28 -2.52 7.28 -7.88 c0 -5.32 -3.72 -7.84 -7.28 -7.84 z M107.84 26.88 c0.36 0 0.68 0 1 0.08 l0 3.08 c-0.32 -0.08 -0.68 -0.08 -0.96 -0.08 c-3.96 0 -7.2 2.84 -7.76 7.52 l0 10.52 l-3.28 0 l0 -20.8 l3.28 0 l0 5.48 c0.76 -3.08 3.6 -5.8 7.72 -5.8 z"/>
         <path transform="translate(180, 370) scale(6.5)" d="M0.5 20 l0 -0.3 l1.68 0 l0 -12.62 l-1.68 0 l0 -0.3 l6.2 0 c4.22 0 5.56 1.68 5.56 3.78 c0 2.42 -2 4 -5.04 4 c-0.5 0 -0.74 -0.04 -0.74 -0.04 l0 -0.3 s0.28 0.04 0.6 0.04 c1.44 0 2 -1.52 2 -3.64 c0 -2.24 -0.52 -3.54 -2.4 -3.54 l-1.46 0 l0 12.62 l1.86 0 l0 0.3 l-6.58 0 z M13.1 20 l0 -0.3 l1.68 0 l0 -12.62 l-1.68 0 l0 -0.3 l6.4 0 l0 0.3 l-1.68 0 l0 12.62 l1.68 0 l0 0.3 l-6.4 0 z M27.34 20.14 c-4.92 0 -6.54 -2.72 -6.54 -6.92 c0 -3.7 1.78 -6.58 6.54 -6.58 c4.58 0 6.56 2.46 6.56 6.58 c0 4 -1.74 6.92 -6.56 6.92 z M27.36 19.88 c2.82 0 3.32 -3.04 3.32 -6.44 c0 -3.72 -0.44 -6.54 -3.32 -6.54 c-2.9 0 -3.34 3 -3.34 6.54 c0 3.68 0.44 6.44 3.34 6.44 z M35.24 20 l0 -0.3 l0.6 0 c0.88 0 1.2 -0.44 1.2 -1.2 l0 -10.22 l-0.2 -0.28 c-0.4 -0.54 -0.78 -0.92 -1.44 -0.92 l-0.36 0 l0 -0.3 l4.54 0 l6.84 9.06 l0 -7.56 c0 -0.76 -0.32 -1.2 -1.2 -1.2 l-0.6 0 l0 -0.3 l3.9 0 l0 0.3 l-0.62 0 c-0.88 0 -1.18 0.44 -1.18 1.2 l0 11.76 l-0.84 0 l-8.54 -11.36 l0 9.82 c0 0.76 0.3 1.2 1.18 1.2 l0.62 0 l0 0.3 l-3.9 0 z M49.34 20 l0 -0.3 l1.68 0 l0 -12.62 l-1.68 0 l0 -0.3 l10.5 0 s-0.42 1.58 -0.58 3.74 l-0.3 0 l0 -1.76 c0 -1.06 -0.38 -1.68 -1.4 -1.68 l-3.5 0 l0 6.24 l3 0 l0 -1.76 l0.3 0 l0 4 l-0.3 0 l0 -1.94 l-3 0 l0 6.08 l3.6 0 c1.26 0 1.64 -1.46 1.92 -3.66 l0.32 0 s-0.3 1.82 -0.3 3.96 l-10.26 0 z M61.1 20 l0 -0.3 l1.68 0 l0 -12.62 l-1.68 0 l0 -0.3 l10.5 0 s-0.42 1.58 -0.58 3.74 l-0.3 0 l0 -1.76 c0 -1.06 -0.38 -1.68 -1.4 -1.68 l-3.5 0 l0 6.24 l3 0 l0 -1.76 l0.3 0 l0 4 l-0.3 0 l0 -1.94 l-3 0 l0 6.08 l3.6 0 c1.26 0 1.64 -1.46 1.92 -3.66 l0.32 0 s-0.3 1.82 -0.3 3.96 l-10.26 0 z M72.86 20 l0 -0.3 l1.68 0 l0 -12.62 l-1.68 0 l0 -0.3 l5.98 0 c4.08 0 5.36 1.38 5.36 3.36 c0 1.58 -1.06 2.92 -4.38 3.24 l0 0.04 c1.86 0.16 3.42 0.92 3.88 2.92 c0.3 1.3 0.1 3.24 1.02 3.24 c0.52 0 0.86 -0.62 0.86 -1.44 l0.3 0 c0 1.22 -0.54 1.96 -2 1.96 c-2.66 0 -3.28 -2.04 -3.42 -3.74 c-0.08 -1 -0.14 -2.8 -1.44 -2.8 l-1.44 0 l0 6.14 l1.68 0 l0 0.3 l-6.4 0 z M77.58 13.26 l1.4 0 c1.56 0 2.04 -1 2.04 -3 c0 -2.06 -0.54 -3.18 -2.14 -3.18 l-1.3 0 l0 6.18 z M87.04 20 l-0.26 0 s0.14 -1.38 0.14 -2.62 l0 -1.82 l0.3 0 l0 0.84 c0 1.84 1.52 3.44 4.24 3.44 c1.72 0 3.06 -0.68 3.06 -2.14 c0 -3.48 -7.68 -2.04 -7.68 -7.02 c0 -2.36 1.52 -4.04 4.36 -4.04 c1.48 0 2.38 0.44 2.9 0.86 c0.52 -0.04 0.86 -0.26 1.12 -0.72 l0.26 0 s-0.4 1.94 -0.4 2.8 l0 1.28 l-0.3 0 l0 -0.64 c0 -1.86 -1.04 -3.28 -3.6 -3.28 c-1.9 0 -2.98 0.8 -2.98 2.1 c0 3.4 7.7 1.86 7.7 7.06 c0 2.24 -1.42 4.04 -4.46 4.04 c-1.64 0 -2.7 -0.5 -3.36 -1.02 c-0.48 0.06 -0.84 0.36 -1.04 0.88 z"/>
         <circle xmlns="http://www.w3.org/2000/svg" cx="692" cy="312" r="20"/>
      </g>
   </g>
</svg>