<svg xmlns="http://www.w3.org/2000/svg" version="1.1" height="1024" width="1024">
   <g transform="scale(1.024)" fill="#FFFFFF">
      <circle cx="500" cy="500" r="500" fill="#505050"/>
      <circle cx="500" cy="500" r="470" stroke="#FFFFFF" stroke-width="20" fill="none" />

      <circle cx="600" cy="140" r="30"/>
      <circle cx="530" cy="120" r="15"/>

      <circle cx="450" cy="260" r="15"/>
      <circle cx="490" cy="260" r="7.5"/>
      <path d="M601.16 215.56l-40.92 167.48c5.64 1.72 11.12 3.32 16.4 4.64 32.68 8 50.8 5.68 53.8 0 1.68-3.12 0-11.48-10.52-24.8a232.4 232.4 0 0 0-35.32-34.44 109.72 109.72 0 0 1-24.36 54.6zm-216.68 98.76a91.6 91.6 0 0 0 14.68 48.24c21.96 11.2 34.68 13.68 48.84 13.68a93.08 93.08 0 0 0 32.44-5.76c-10.48-5-20.76-10.4-31.36-16a659.4 659.4 0 0 1-64.6-40.16zm116 45.64a92 92 0 0 0 39.44-75.44 83.6 83.6 0 0 0-15.48-49.96 91.76 91.76 0 0 0-137.68 60 630.32 630.32 0 0 0 70.72 44.24c14.4 7.8 28.76 14.8 42.8 21.16m-94.4-130.36a258.48 258.48 0 0 0-55.8-13.6c-17.84-1.8-26.24 1.36-28 4.6-3 5.4 4.92 22.04 29.48 45.04 6 5.64 12.52 11.36 19.76 17.12a109.88 109.88 0 0 1 34.32-53.24m17.84-12.24a107.32 107.32 0 0 1 52.88-13.8A109.36 109.36 0 0 1 585.48 306.6a276.44 276.44 0 0 1 48.36 45.44c14.16 18.08 18.24 32.92 12 44-5.2 9.6-16.52 14.4-33.8 14.4a171.64 171.64 0 0 1-39.76-5.76c-8.36-2.04-17.12-4.72-26.28-7.76A109.32 109.32 0 0 1 385.48 374 108.8 108.8 0 0 1 367 313.24c0-3.48.28-7.08.6-10.48-10.4-8-19.76-16-28-24-30.44-28.76-41.52-50.96-33.04-66.6C312.8 200.64 328 196.04 352 198.4a300.56 300.56 0 0 1 71.6 18.84m-76 148"/>

      <path d="M206.8 575.68c-5.6-11.76-14.84-19.04-28.28-19.04-14 0-23.52 8.4-23.52 19.6 0 10.08 5.32 17.36 19.88 22.68l14.56 5.04c24.36 8.68 42.28 17.64 42.28 43.12 0 27.72-26.88 42-51.8 42-25.2 0-47.6-14.56-52.92-38.92l18.48-5.6c4.48 15.96 17.64 25.76 34.44 25.76 14.56 0 29.12-8.4 29.12-22.96 0-12.6-8.68-19.32-23.8-24.64L169 616.84c-25.48-8.96-36.4-23.24-36.4-40.6 0-22.68 20.16-38.36 45.36-38.36 23.52 0 40.04 12.88 47.88 32.2zm115.36-15.96h-30.8v93.8c0 8.68 3.36 14 11.76 14 7.28 0 12.6-1.68 18.76-4.48v19.6c-6.16 3.08-13.44 5.04-24.92 5.04-14.84 0-28.28-6.72-28.28-32.2v-95.76h-20.16V540.4h20.16v-34.16h22.68v34.16h30.8v19.32zm94.08-21.84c33.04 0 77.28 25.2 71.4 83.72H364.72c3.64 31.92 28.56 47.6 54.88 47.6 20.16 0 33.04-5.6 43.96-16.24L477 665.28c-13.16 15.68-32.2 23.52-57.68 23.52-37.52 0-77.56-25.2-77.56-75.32 0-50.4 41.44-75.6 74.48-75.6zm0 19.88c-21.56 0-47.32 15.4-51.52 46.76h102.76c-2.8-31.36-29.4-46.76-51.24-46.76zm120.68-69.72V686h-22.96V488.04h22.96zm54.88 0V686h-22.96V488.04h22.96zm98.84 49.84c25.76 0 45.64 14.28 52.36 29.96V540.4h22.96V686H743v-28c-6.72 16.8-26.6 30.8-52.36 30.8-33.04 0-73.08-24.92-73.08-75.6 0-50.12 40.04-75.32 73.08-75.32zm2.52 20.44c-24.64 0-53.2 18.2-53.2 54.88 0 36.96 28.56 55.16 53.2 55.16 24.92 0 50.96-17.64 50.96-55.16 0-37.24-26.04-54.88-50.96-54.88zm181.72-20.16c2.52 0 4.76 0 7 .56v21.56c-2.24-.56-4.76-.56-6.72-.56-27.72 0-50.4 19.88-54.32 52.64V686h-22.96V540.4h22.96v38.36c5.32-21.56 25.2-40.6 54.04-40.6zM183.25 800v-1.95h10.92v-82.03h-10.92v-1.95h40.3c27.43 0 36.14 10.92 36.14 24.57 0 15.73-13 26-32.76 26-3.25 0-4.81-.26-4.81-.26v-1.95s1.82.26 3.9.26c9.36 0 13-9.88 13-23.66 0-14.56-3.38-23.01-15.6-23.01h-9.49v82.03h12.09V800h-42.77zm81.9 0v-1.95h10.92v-82.03h-10.92v-1.95h41.6v1.95h-10.92v82.03h10.92V800h-41.6zm92.56.91c-31.98 0-42.51-17.68-42.51-44.98 0-24.05 11.57-42.77 42.51-42.77 29.77 0 42.64 15.99 42.64 42.77 0 26-11.31 44.98-42.64 44.98zm.13-1.69c18.33 0 21.58-19.76 21.58-41.86 0-24.18-2.86-42.51-21.58-42.51-18.85 0-21.71 19.5-21.71 42.51 0 23.92 2.86 41.86 21.71 41.86zm51.22.78v-1.95h3.9c5.72 0 7.8-2.86 7.8-7.8v-66.43l-1.3-1.82c-2.6-3.51-5.07-5.98-9.36-5.98h-2.34v-1.95h29.51l44.46 58.89v-49.14c0-4.94-2.08-7.8-7.8-7.8h-3.9v-1.95h25.35v1.95h-4.03c-5.72 0-7.67 2.86-7.67 7.8v76.44h-5.46l-55.51-73.84v63.83c0 4.94 1.95 7.8 7.67 7.8h4.03V800h-25.35zm91.65 0v-1.95h10.92v-82.03h-10.92v-1.95h68.25s-2.73 10.27-3.77 24.31h-1.95v-11.44c0-6.89-2.47-10.92-9.1-10.92h-22.75v40.56h19.5v-11.44h1.95v26h-1.95v-12.61h-19.5v39.52h23.4c8.19 0 10.66-9.49 12.48-23.79h2.08s-1.95 11.83-1.95 25.74h-66.69zm76.44 0v-1.95h10.92v-82.03h-10.92v-1.95h68.25s-2.73 10.27-3.77 24.31h-1.95v-11.44c0-6.89-2.47-10.92-9.1-10.92h-22.75v40.56h19.5v-11.44h1.95v26h-1.95v-12.61h-19.5v39.52h23.4c8.19 0 10.66-9.49 12.48-23.79h2.08s-1.95 11.83-1.95 25.74h-66.69zm76.44 0v-1.95h10.92v-82.03h-10.92v-1.95h38.87c26.52 0 34.84 8.97 34.84 21.84 0 10.27-6.89 18.98-28.47 21.06v.26c12.09 1.04 22.23 5.98 25.22 18.98 1.95 8.45.65 21.06 6.63 21.06 3.38 0 5.59-4.03 5.59-9.36h1.95c0 7.93-3.51 12.74-13 12.74-17.29 0-21.32-13.26-22.23-24.31-.52-6.5-.91-18.2-9.36-18.2h-9.36v39.91h10.92V800h-41.6zm30.68-43.81h9.1c10.14 0 13.26-6.5 13.26-19.5 0-13.39-3.51-20.67-13.91-20.67h-8.45v40.17zM745.76 800h-1.69s.91-8.97.91-17.03v-11.83h1.95v5.46c0 11.96 9.88 22.36 27.56 22.36 11.18 0 19.89-4.42 19.89-13.91 0-22.62-49.92-13.26-49.92-45.63 0-15.34 9.88-26.26 28.34-26.26 9.62 0 15.47 2.86 18.85 5.59 3.38-.26 5.59-1.69 7.28-4.68h1.69s-2.6 12.61-2.6 18.2v8.32h-1.95v-4.16c0-12.09-6.76-21.32-23.4-21.32-12.35 0-19.37 5.2-19.37 13.65 0 22.1 50.05 12.09 50.05 45.89 0 14.56-9.23 26.26-28.99 26.26-10.66 0-17.55-3.25-21.84-6.63-3.12.39-5.46 2.34-6.76 5.72z"/>
      <circle cx="692" cy="612" r="20"/>
   </g>
</svg>
