<svg xmlns="http://www.w3.org/2000/svg" version="1.1" height="1024" width="1024">
   <g transform="scale(1.024)" fill="#FFFFFF">
      <circle cx="500" cy="500" r="500" fill="#505050"/>
      <circle cx="500" cy="500" r="470" stroke="#FFFFFF" stroke-width="20" fill="none" />

      <circle cx="600" cy="140" r="30"/>
      <circle cx="530" cy="120" r="15"/>

      <circle cx="450" cy="260" r="15"/>
      <circle cx="490" cy="260" r="7.5"/>
      <path d="M601.16 215.56l-40.92 167.48c5.64 1.72 11.12 3.32 16.4 4.64 32.68 8 50.8 5.68 53.8 0 1.68-3.12 0-11.48-10.52-24.8a232.4 232.4 0 0 0-35.32-34.44 109.72 109.72 0 0 1-24.36 54.6zm-216.68 98.76a91.6 91.6 0 0 0 14.68 48.24c21.96 11.2 34.68 13.68 48.84 13.68a93.08 93.08 0 0 0 32.44-5.76c-10.48-5-20.76-10.4-31.36-16a659.4 659.4 0 0 1-64.6-40.16zm116 45.64a92 92 0 0 0 39.44-75.44 83.6 83.6 0 0 0-15.48-49.96 91.76 91.76 0 0 0-137.68 60 630.32 630.32 0 0 0 70.72 44.24c14.4 7.8 28.76 14.8 42.8 21.16m-94.4-130.36a258.48 258.48 0 0 0-55.8-13.6c-17.84-1.8-26.24 1.36-28 4.6-3 5.4 4.92 22.04 29.48 45.04 6 5.64 12.52 11.36 19.76 17.12a109.88 109.88 0 0 1 34.32-53.24m17.84-12.24a107.32 107.32 0 0 1 52.88-13.8A109.36 109.36 0 0 1 585.48 306.6a276.44 276.44 0 0 1 48.36 45.44c14.16 18.08 18.24 32.92 12 44-5.2 9.6-16.52 14.4-33.8 14.4a171.64 171.64 0 0 1-39.76-5.76c-8.36-2.04-17.12-4.72-26.28-7.76A109.32 109.32 0 0 1 385.48 374 108.8 108.8 0 0 1 367 313.24c0-3.48.28-7.08.6-10.48-10.4-8-19.76-16-28-24-30.44-28.76-41.52-50.96-33.04-66.6C312.8 200.64 328 196.04 352 198.4a300.56 300.56 0 0 1 71.6 18.84m-76 148"/>

      <path d="M210.16 554.72c29.44 0 52.16 16.32 59.84 34.24V557.6h26.24V724H270v-32c-7.68 19.2-30.4 35.2-59.84 35.2-37.76 0-83.52-28.48-83.52-86.4 0-57.28 45.76-86.08 83.52-86.08zm2.88 23.36c-28.16 0-60.8 20.8-60.8 62.72 0 42.24 32.64 63.04 60.8 63.04 28.48 0 58.24-20.16 58.24-63.04 0-42.56-29.76-62.72-58.24-62.72zm188.16 19.84c-6.4-5.44-16.96-21.76-32.32-21.76-16 0-26.88 9.6-26.88 22.4 0 11.52 6.08 19.84 22.72 25.92l16.64 5.76c27.84 9.92 48.32 20.16 48.32 49.28 0 31.68-30.72 48-59.2 48-28.8 0-54.4-16.64-60.48-44.48l21.12-6.4c5.12 18.24 20.16 29.44 39.36 29.44 16.64 0 33.28-9.6 33.28-26.24 0-14.4-9.92-22.08-27.2-28.16L358 644.96c-29.12-10.24-41.6-26.56-41.6-46.4 0-25.92 23.04-43.84 51.84-43.84 26.88 0 45.76 14.72 54.72 36.8zm115.84-18.24h-35.2v107.2c0 9.92 3.84 16 13.44 16 8.32 0 14.4-1.92 21.44-5.12v22.4c-7.04 3.52-15.36 5.76-28.48 5.76-16.96 0-32.32-7.68-32.32-36.8V579.68h-23.04V557.6h23.04v-39.04h25.92v39.04h35.2v22.08zm103.68-24.64c2.88 0 5.44 0 8 .64v24.64c-2.56-.64-5.44-.64-7.68-.64-31.68 0-57.6 22.72-62.08 60.16V724h-26.24V557.6h26.24v43.84c6.08-24.64 28.8-46.4 61.76-46.4zm85.44-.32c29.44 0 52.16 16.32 59.84 34.24V557.6h26.24V724H766v-32c-7.68 19.2-30.4 35.2-59.84 35.2-37.76 0-83.52-28.48-83.52-86.4 0-57.28 45.76-86.08 83.52-86.08zm2.88 23.36c-28.16 0-60.8 20.8-60.8 62.72 0 42.24 32.64 63.04 60.8 63.04 28.48 0 58.24-20.16 58.24-63.04 0-42.56-29.76-62.72-58.24-62.72zm133.44-80.32V724h-26.24V497.76h26.24z"/>
      <circle cx="212" cy="642" r="30"/>
      <circle cx="709" cy="642" r="30"/>
   </g>
</svg>
