<svg xmlns="http://www.w3.org/2000/svg" version="1.1" height="1024" width="1024">
   <g transform="scale(1.024)" fill="#FFFFFF">
      <g fill="#505050">
         <!--<rect width="1000" height="1000" fill="#505050"/>-->
         <circle xmlns="http://www.w3.org/2000/svg" cx="500" cy="500" r="500"/>
         <circle xmlns="http://www.w3.org/2000/svg" cx="500" cy="500" r="480" fill="#FFFFFF"/>
         <circle xmlns="http://www.w3.org/2000/svg" cx="500" cy="500" r="460"/>
      </g>
      <g transform="translate(100.0,100) scale(7.5)">
         <circle xmlns="http://www.w3.org/2000/svg" cx="79.59" cy="17.09" r="6.71"/>
         <circle xmlns="http://www.w3.org/2000/svg" cx="62.29" cy="12.14" r="2.71"/>
         <circle xmlns="http://www.w3.org/2000/svg" cx="42.1" cy="47.82" r="3.76"/>
         <circle xmlns="http://www.w3.org/2000/svg" cx="51.1" cy="47.95" r="1.88"/>
         <path xmlns="http://www.w3.org/2000/svg"
               d="M80.29,36.39,70.06,78.26c1.41,0.43,2.78.83,4.1,1.16,8.17,2,12.7,1.42,13.45,0,0.42-.78,0-2.87-2.63-6.2a58.1,58.1,0,0,0-8.83-8.61A27.43,27.43,0,0,1,70.06,78.26ZM26.12,61.08a22.9,22.9,0,0,0,3.67,12.06c5.49,2.8,8.67,3.42,12.21,3.42a23.27,23.27,0,0,0,8.11-1.44c-2.62-1.25-5.19-2.6-7.84-4A164.85,164.85,0,0,1,26.12,61.08Zm29,11.41a23,23,0,0,0,9.86-18.86,20.9,20.9,0,0,0-3.87-12.49,22.94,22.94,0,0,0-34.42,15A157.58,157.58,0,0,0,44.37,67.2c3.6,1.95,7.19,3.7,10.7,5.29M31.47,39.9a64.62,64.62,0,0,0-13.95-3.4c-4.46-.45-6.56.34-7,1.15C9.77,39,11.75,43.16,17.89,48.91c1.5,1.41,3.13,2.84,4.94,4.28a27.47,27.47,0,0,1,8.58-13.31m4.46-3.06a26.83,26.83,0,0,1,13.22-3.45A27.34,27.34,0,0,1,76.37,59.15,69.11,69.11,0,0,1,88.46,70.51c3.54,4.52,4.56,8.23,3,11-1.3,2.4-4.13,3.6-8.45,3.6a42.91,42.91,0,0,1-9.94-1.44c-2.09-.51-4.28-1.18-6.57-1.94A27.33,27.33,0,0,1,26.37,76l0,0a27.2,27.2,0,0,1-4.62-15.19c0-.87.07-1.77,0.15-2.62-2.6-2-4.94-4-7-6C7.29,45,4.52,39.45,6.64,35.54,8.2,32.66,12,31.51,18,32.1a75.14,75.14,0,0,1,17.9,4.71m-19,37"/>
      </g>
   </g>
</svg>